# xmcd
#
# Track frame offsets:
#	150
#	26644
#	42819
#	59560
#	75280
#	91676
#	105498
#	122944
#	141616
#	157452
#	172185
#	188599
#	207108
#	221717
#	233673
#
# Disc length: 3312 seconds
#
# Revision: 1
# Processed by: cddbd v1.5.2PL0 Copyright (c) Steve Scherf et al.
# Submitted via: audiograbber 1.83.01
#
DISCID=d30cee0f
DTITLE=Various Artist - Edge Of The 80's - Hits Hits Hits[CD2]
DYEAR=1900
DGENRE=Retro
TTITLE0=Eurythmics - Sisters Are Doing It For Themselves
TTITLE1=Cliff Richard - Dreamin'
TTITLE2=Wham! - Young Guns(go for it)
TTITLE3=Limahl - Never Ending Story
TTITLE4=Samantha Fox - Touch Me(i want your body)
TTITLE5=Shakin' Stevens - This Ole House
TTITLE6=Rupert Holmes - Escape(pina colada song)
TTITLE7=Tiffany - I Saw Him Standing There
TTITLE8=Pseudo Echo - Funky Town
TTITLE9=Sheena Easton - Morning Train(9 to 5)
TTITLE10=The Proclaimers - I'm On My Way
TTITLE11=NKOTB - You Got It(the right stuff)
TTITLE12=Dennis Waterman - I Could Be So Good For You
TTITLE13=Bucks Fizz - Making Your Mind Up
TTITLE14=Dr. Hook - Girls Can Get It
EXTD=
EXTT0=
EXTT1=
EXTT2=
EXTT3=
EXTT4=
EXTT5=
EXTT6=
EXTT7=
EXTT8=
EXTT9=
EXTT10=
EXTT11=
EXTT12=
EXTT13=
EXTT14=
PLAYORDER=
